<?xml version="1.0" encoding="UTF-8" standalone="no"?><svg xmlns="http://www.w3.org/2000/svg" xmlns:xlink="http://www.w3.org/1999/xlink" contentScriptType="application/ecmascript" contentStyleType="text/css" height="439px" preserveAspectRatio="none" style="width:625px;height:439px;" version="1.1" viewBox="0 0 625 439" width="625px" zoomAndPan="magnify"><defs><filter height="300%" id="f7hdmxtix5k3" width="300%" x="-1" y="-1"><feGaussianBlur result="blurOut" stdDeviation="2.0"/><feColorMatrix in="blurOut" result="blurOut2" type="matrix" values="0 0 0 0 0 0 0 0 0 0 0 0 0 0 0 0 0 0 .4 0"/><feOffset dx="4.0" dy="4.0" in="blurOut2" result="blurOut3"/><feBlend in="SourceGraphic" in2="blurOut3" mode="normal"/></filter></defs><g><!--cluster global.namespace.archive-io--><polygon fill="#FFFFFF" filter="url(#f7hdmxtix5k3)" points="26,173,236,173,243,195.4883,603,195.4883,603,340,26,340,26,173" style="stroke: #000000; stroke-width: 1.5;"/><line style="stroke: #000000; stroke-width: 1.5;" x1="26" x2="243" y1="195.4883" y2="195.4883"/><text fill="#000000" font-family="sans-serif" font-size="14" font-weight="bold" lengthAdjust="spacingAndGlyphs" textLength="204" x="30" y="188.5352">global.namespace.archive-io</text><!--entity archive-io-api--><rect fill="#FEFECE" filter="url(#f7hdmxtix5k3)" height="36.4883" style="stroke: #A80036; stroke-width: 1.5;" width="119" x="334.5" y="200"/><rect fill="#FEFECE" height="5" style="stroke: #A80036; stroke-width: 1.5;" width="10" x="329.5" y="205"/><rect fill="#FEFECE" height="5" style="stroke: #A80036; stroke-width: 1.5;" width="10" x="329.5" y="226.4883"/><text fill="#000000" font-family="sans-serif" font-size="14" lengthAdjust="spacingAndGlyphs" textLength="99" x="344.5" y="223.5352">archive-io-api</text><!--entity archive-io-commons-compress--><rect fill="#FEFECE" filter="url(#f7hdmxtix5k3)" height="36.4883" style="stroke: #A80036; stroke-width: 1.5;" width="239" x="355.5" y="296"/><rect fill="#FEFECE" height="5" style="stroke: #A80036; stroke-width: 1.5;" width="10" x="350.5" y="301"/><rect fill="#FEFECE" height="5" style="stroke: #A80036; stroke-width: 1.5;" width="10" x="350.5" y="322.4883"/><text fill="#000000" font-family="sans-serif" font-size="14" lengthAdjust="spacingAndGlyphs" textLength="219" x="365.5" y="319.5352">archive-io-commons-compress</text><!--entity archive-io-delta--><rect fill="#FEFECE" filter="url(#f7hdmxtix5k3)" height="36.4883" style="stroke: #A80036; stroke-width: 1.5;" width="132" x="34" y="296"/><rect fill="#FEFECE" height="5" style="stroke: #A80036; stroke-width: 1.5;" width="10" x="29" y="301"/><rect fill="#FEFECE" height="5" style="stroke: #A80036; stroke-width: 1.5;" width="10" x="29" y="322.4883"/><text fill="#000000" font-family="sans-serif" font-size="14" lengthAdjust="spacingAndGlyphs" textLength="112" x="44" y="319.5352">archive-io-delta</text><!--entity archive-io-juz--><rect fill="#FEFECE" filter="url(#f7hdmxtix5k3)" height="36.4883" style="stroke: #A80036; stroke-width: 1.5;" width="119" x="201.5" y="296"/><rect fill="#FEFECE" height="5" style="stroke: #A80036; stroke-width: 1.5;" width="10" x="196.5" y="301"/><rect fill="#FEFECE" height="5" style="stroke: #A80036; stroke-width: 1.5;" width="10" x="196.5" y="322.4883"/><text fill="#000000" font-family="sans-serif" font-size="14" lengthAdjust="spacingAndGlyphs" textLength="99" x="211.5" y="319.5352">archive-io-juz</text><!--entity commons-compress--><rect fill="#FEFECE" filter="url(#f7hdmxtix5k3)" height="36.4883" style="stroke: #A80036; stroke-width: 1.5;" width="161" x="426.5" y="104"/><rect fill="#FEFECE" height="5" style="stroke: #A80036; stroke-width: 1.5;" width="10" x="421.5" y="109"/><rect fill="#FEFECE" height="5" style="stroke: #A80036; stroke-width: 1.5;" width="10" x="421.5" y="130.4883"/><text fill="#000000" font-family="sans-serif" font-size="14" lengthAdjust="spacingAndGlyphs" textLength="141" x="436.5" y="127.5352">commons-compress</text><!--entity fun-io-jackson--><rect fill="#FEFECE" filter="url(#f7hdmxtix5k3)" height="36.4883" style="stroke: #A80036; stroke-width: 1.5;" width="124" x="6" y="104"/><rect fill="#FEFECE" height="5" style="stroke: #A80036; stroke-width: 1.5;" width="10" x="1" y="109"/><rect fill="#FEFECE" height="5" style="stroke: #A80036; stroke-width: 1.5;" width="10" x="1" y="130.4883"/><text fill="#000000" font-family="sans-serif" font-size="14" lengthAdjust="spacingAndGlyphs" textLength="104" x="16" y="127.5352">fun-io-jackson</text><!--entity fun-io-api--><rect fill="#FEFECE" filter="url(#f7hdmxtix5k3)" height="36.4883" style="stroke: #A80036; stroke-width: 1.5;" width="93" x="169.5" y="8"/><rect fill="#FEFECE" height="5" style="stroke: #A80036; stroke-width: 1.5;" width="10" x="164.5" y="13"/><rect fill="#FEFECE" height="5" style="stroke: #A80036; stroke-width: 1.5;" width="10" x="164.5" y="34.4883"/><text fill="#000000" font-family="sans-serif" font-size="14" lengthAdjust="spacingAndGlyphs" textLength="73" x="179.5" y="31.5352">fun-io-api</text><!--entity fun-io-bios--><rect fill="#FEFECE" filter="url(#f7hdmxtix5k3)" height="36.4883" style="stroke: #A80036; stroke-width: 1.5;" width="101" x="165.5" y="104"/><rect fill="#FEFECE" height="5" style="stroke: #A80036; stroke-width: 1.5;" width="10" x="160.5" y="109"/><rect fill="#FEFECE" height="5" style="stroke: #A80036; stroke-width: 1.5;" width="10" x="160.5" y="130.4883"/><text fill="#000000" font-family="sans-serif" font-size="14" lengthAdjust="spacingAndGlyphs" textLength="81" x="175.5" y="127.5352">fun-io-bios</text><!--entity client-application--><rect fill="#FEFECE" filter="url(#f7hdmxtix5k3)" height="36.4883" style="stroke: #A80036; stroke-width: 1.5;" width="141" x="190.5" y="392"/><rect fill="#FEFECE" height="5" style="stroke: #A80036; stroke-width: 1.5;" width="10" x="185.5" y="397"/><rect fill="#FEFECE" height="5" style="stroke: #A80036; stroke-width: 1.5;" width="10" x="185.5" y="418.4883"/><text fill="#000000" font-family="sans-serif" font-size="14" lengthAdjust="spacingAndGlyphs" textLength="121" x="200.5" y="415.5352">client-application</text><!--link archive-io-api to archive-io-commons-compress--><path d="M422.3405,251.5888 C434.8447,266.4085 449.0533,283.2483 459.5574,295.6977 " fill="none" id="archive-io-api-archive-io-commons-compress" style="stroke: #A80036; stroke-width: 1.0;"/><polygon fill="none" points="416.7829,255.8568,409.2355,236.0569,427.483,246.8286,416.7829,255.8568" style="stroke: #A80036; stroke-width: 1.0;"/><!--link archive-io-api to archive-io-delta--><path d="M333.7064,237.6877 C281.3443,254.7855 206.1403,279.3419 155.3005,295.9427 " fill="none" id="archive-io-api-archive-io-delta" style="stroke: #A80036; stroke-width: 1.0;"/><polygon fill="#A80036" points="338.7008,236.0569,328.9037,235.0481,333.9478,237.6089,331.387,242.6529,338.7008,236.0569" style="stroke: #A80036; stroke-width: 1.0;"/><!--link archive-io-api to archive-io-juz--><path d="M352.6962,247.8132 C330.9929,263.4788 305.0876,282.1774 286.3563,295.6977 " fill="none" id="archive-io-api-archive-io-juz" style="stroke: #A80036; stroke-width: 1.0;"/><polygon fill="none" points="348.67,242.0864,368.9837,236.0569,356.8638,253.4382,348.67,242.0864" style="stroke: #A80036; stroke-width: 1.0;"/><!--link archive-io-juz to archive-io-commons-compress--><!--link commons-compress to archive-io-commons-compress--><path d="M503.1621,145.0271 C496.7228,183.6633 483.8749,260.7506 478.0258,295.8452 " fill="none" id="commons-compress-archive-io-commons-compress" style="stroke: #A80036; stroke-width: 1.0;"/><polygon fill="#A80036" points="503.9895,140.0629,498.5641,148.2827,503.1674,144.9948,506.4552,149.5981,503.9895,140.0629" style="stroke: #A80036; stroke-width: 1.0;"/><!--link fun-io-jackson to archive-io-delta--><path d="M71.8379,145.0271 C78.2772,183.6633 91.1251,260.7506 96.9742,295.8452 " fill="none" id="fun-io-jackson-archive-io-delta" style="stroke: #A80036; stroke-width: 1.0;"/><polygon fill="#A80036" points="71.0105,140.0629,68.5448,149.5981,71.8326,144.9948,76.4359,148.2827,71.0105,140.0629" style="stroke: #A80036; stroke-width: 1.0;"/><!--link fun-io-api to archive-io-api--><path d="M236.478,48.0887 C271.9976,86.4019 344.3677,164.4641 377.169,199.8452 " fill="none" id="fun-io-api-archive-io-api" style="stroke: #A80036; stroke-width: 1.0;"/><polygon fill="#A80036" points="232.7458,44.0629,235.9313,53.3824,236.1452,47.7295,241.798,47.9434,232.7458,44.0629" style="stroke: #A80036; stroke-width: 1.0;"/><!--link fun-io-api to fun-io-bios--><path d="M216,49.0611 C216,65.8106 216,88.1694 216,103.6977 " fill="none" id="fun-io-api-fun-io-bios" style="stroke: #A80036; stroke-width: 1.0;"/><polygon fill="#A80036" points="216,44.0569,212,53.0569,216,49.0569,220,53.0569,216,44.0569" style="stroke: #A80036; stroke-width: 1.0;"/><!--link fun-io-api to fun-io-jackson--><path d="M183.7223,46.9369 C157.515,63.9362 120.9372,87.6624 95.964,103.8612 " fill="none" id="fun-io-api-fun-io-jackson" style="stroke: #A80036; stroke-width: 1.0;"/><polygon fill="#A80036" points="188.1623,44.0569,178.4349,45.5988,183.9675,46.7779,182.7884,52.3105,188.1623,44.0569" style="stroke: #A80036; stroke-width: 1.0;"/><!--link fun-io-bios to archive-io-commons-compress--><path d="M234.9536,144.3075 C261.4922,175.3986 307.5473,228.7815 317,236 C350.5514,261.6216 393.8432,282.2858 426.6243,295.8919 " fill="none" id="fun-io-bios-archive-io-commons-compress" style="stroke: #A80036; stroke-width: 1.0;"/><polygon fill="#A80036" points="231.5022,140.2607,234.299,149.7041,234.7468,144.065,240.3859,144.5128,231.5022,140.2607" style="stroke: #A80036; stroke-width: 1.0;"/><!--link fun-io-bios to archive-io-delta--><path d="M202.3724,144.556 C179.1257,183.0333 132.2581,260.6073 110.9685,295.8452 " fill="none" id="fun-io-bios-archive-io-delta" style="stroke: #A80036; stroke-width: 1.0;"/><polygon fill="#A80036" points="205.087,140.0629,197.0092,145.6975,202.5013,144.3424,203.8564,149.8346,205.087,140.0629" style="stroke: #A80036; stroke-width: 1.0;"/><!--link fun-io-bios to archive-io-juz--><path d="M221.397,145.0271 C230.4523,183.6633 248.5197,260.7506 256.745,295.8452 " fill="none" id="fun-io-bios-archive-io-juz" style="stroke: #A80036; stroke-width: 1.0;"/><polygon fill="#A80036" points="220.2335,140.0629,218.3928,149.7382,221.3745,144.931,226.1817,147.9126,220.2335,140.0629" style="stroke: #A80036; stroke-width: 1.0;"/><!--link archive-io-delta to client-application--><path d="M134.76,334.7265 C163.2931,351.74 203.3007,375.5954 230.5797,391.8612 " fill="none" id="archive-io-delta-client-application" style="stroke: #A80036; stroke-width: 1.0;"/><polygon fill="#A80036" points="130.2829,332.0569,135.9643,340.1019,134.5774,334.6177,140.0616,333.2308,130.2829,332.0569" style="stroke: #A80036; stroke-width: 1.0;"/><text fill="#000000" font-family="sans-serif" font-size="13" lengthAdjust="spacingAndGlyphs" textLength="24" x="112.3391" y="353.0615">this</text><!--link archive-io-juz to client-application--><path d="M261,337.0611 C261,353.8106 261,376.1694 261,391.6977 " fill="none" id="archive-io-juz-client-application" style="stroke: #A80036; stroke-width: 1.0; stroke-dasharray: 7.0,7.0;"/><polygon fill="#A80036" points="261,332.0569,257,341.0569,261,337.0569,265,341.0569,261,332.0569" style="stroke: #A80036; stroke-width: 1.0;"/><text fill="#000000" font-family="sans-serif" font-size="13" lengthAdjust="spacingAndGlyphs" textLength="91" x="162.5213" y="352.9608">and either this</text><!--link archive-io-commons-compress to client-application--><path d="M429.7306,334.3078 C391.7478,351.3468 337.9919,375.4616 301.4345,391.8612 " fill="none" id="archive-io-commons-compress-client-application" style="stroke: #A80036; stroke-width: 1.0; stroke-dasharray: 7.0,7.0;"/><polygon fill="#A80036" points="434.7482,332.0569,424.8994,332.0911,430.1862,334.1035,428.1739,339.3903,434.7482,332.0569" style="stroke: #A80036; stroke-width: 1.0;"/><text fill="#000000" font-family="sans-serif" font-size="13" lengthAdjust="spacingAndGlyphs" textLength="42" x="372.4585" y="353.0615">or that</text><!--
@startuml

folder global.namespace.archive-io {
    [archive-io-api] <|- - [archive-io-commons-compress]
    [archive-io-api] <- - [archive-io-delta]
    [archive-io-api] <|- - [archive-io-juz]
    [archive-io-juz] -[hidden] [archive-io-commons-compress]
}

[commons-compress] <- - - [archive-io-commons-compress]
[fun-io-jackson] <- - - [archive-io-delta]
[fun-io-api] <- - [archive-io-api]
[fun-io-api] <- - [fun-io-bios]
[fun-io-api] <- - [fun-io-jackson]
[fun-io-bios] <- - - [archive-io-commons-compress]
[fun-io-bios] <- - - [archive-io-delta]
[fun-io-bios] <- - - [archive-io-juz]

[archive-io-delta] "this" <- - [client-application]
[archive-io-juz] "and either this" <.. [client-application]
[archive-io-commons-compress] "or that" <.. [client-application]

@enduml

PlantUML version 1.2018.01(Sun Jan 28 22:08:22 GST 2018)
(GPL source distribution)
Java Runtime: OpenJDK Runtime Environment
JVM: OpenJDK 64-Bit Server VM
Java Version: 1.8.0_152-release-1136-b20
Operating System: Mac OS X
OS Version: 10.13.4
Default Encoding: UTF-8
Language: en
Country: AE
--></g></svg>