<?xml version="1.0" encoding="UTF-8" standalone="no"?>
<svg xmlns="http://www.w3.org/2000/svg" contentScriptType="application/ecmascript" contentStyleType="text/css"
     height="439px" preserveAspectRatio="none" style="width:629px;height:439px;" version="1.1" viewBox="0 0 629 439"
     width="629px" zoomAndPan="magnify"><defs><filter height="300%" id="f8ljhz57nvt4x" width="300%" x="-1" y="-1"><feGaussianBlur result="blurOut" stdDeviation="2.0"/><feColorMatrix in="blurOut" result="blurOut2" type="matrix" values="0 0 0 0 0 0 0 0 0 0 0 0 0 0 0 0 0 0 .4 0"/><feOffset dx="4.0" dy="4.0" in="blurOut2" result="blurOut3"/><feBlend in="SourceGraphic" in2="blurOut3" mode="normal"/></filter></defs><g><!--cluster global.namespace.archive-io--><polygon fill="#FFFFFF" filter="url(#f8ljhz57nvt4x)" points="22,173,232,173,239,195.4883,607,195.4883,607,340,22,340,22,173" style="stroke: #000000; stroke-width: 1.5;"/><line style="stroke: #000000; stroke-width: 1.5;" x1="22" x2="239" y1="195.4883" y2="195.4883"/><text fill="#000000" font-family="sans-serif" font-size="14" font-weight="bold" lengthAdjust="spacingAndGlyphs" textLength="204" x="26" y="188.5352">global.namespace.archive-io</text><!--entity archive-io-api--><rect fill="#FEFECE" filter="url(#f8ljhz57nvt4x)" height="36.4883" style="stroke: #A80036; stroke-width: 1.5;" width="119" x="334.5" y="200"/><rect fill="#FEFECE" height="5" style="stroke: #A80036; stroke-width: 1.5;" width="10" x="329.5" y="205"/><rect fill="#FEFECE" height="5" style="stroke: #A80036; stroke-width: 1.5;" width="10" x="329.5" y="226.4883"/><text fill="#000000" font-family="sans-serif" font-size="14" lengthAdjust="spacingAndGlyphs" textLength="99" x="344.5" y="223.5352">archive-io-api</text><!--entity archive-io-commons-compress--><rect fill="#FEFECE" filter="url(#f8ljhz57nvt4x)" height="36.4883" style="stroke: #A80036; stroke-width: 1.5;" width="239" x="359.5" y="296"/><rect fill="#FEFECE" height="5" style="stroke: #A80036; stroke-width: 1.5;" width="10" x="354.5" y="301"/><rect fill="#FEFECE" height="5" style="stroke: #A80036; stroke-width: 1.5;" width="10" x="354.5" y="322.4883"/><text fill="#000000" font-family="sans-serif" font-size="14" lengthAdjust="spacingAndGlyphs" textLength="219" x="369.5" y="319.5352">archive-io-commons-compress</text><!--entity archive-io-delta--><rect fill="#FEFECE" filter="url(#f8ljhz57nvt4x)" height="36.4883" style="stroke: #A80036; stroke-width: 1.5;" width="132" x="30" y="296"/><rect fill="#FEFECE" height="5" style="stroke: #A80036; stroke-width: 1.5;" width="10" x="25" y="301"/><rect fill="#FEFECE" height="5" style="stroke: #A80036; stroke-width: 1.5;" width="10" x="25" y="322.4883"/><text fill="#000000" font-family="sans-serif" font-size="14" lengthAdjust="spacingAndGlyphs" textLength="112" x="40" y="319.5352">archive-io-delta</text><!--entity archive-io-bios--><rect fill="#FEFECE" filter="url(#f8ljhz57nvt4x)" height="36.4883" style="stroke: #A80036; stroke-width: 1.5;" width="127" x="197.5" y="296"/><rect fill="#FEFECE" height="5" style="stroke: #A80036; stroke-width: 1.5;" width="10" x="192.5" y="301"/><rect fill="#FEFECE" height="5" style="stroke: #A80036; stroke-width: 1.5;" width="10" x="192.5" y="322.4883"/><text fill="#000000" font-family="sans-serif" font-size="14" lengthAdjust="spacingAndGlyphs" textLength="107" x="207.5" y="319.5352">archive-io-bios</text><!--entity commons-compress--><rect fill="#FEFECE" filter="url(#f8ljhz57nvt4x)" height="36.4883" style="stroke: #A80036; stroke-width: 1.5;" width="161" x="426.5" y="104"/><rect fill="#FEFECE" height="5" style="stroke: #A80036; stroke-width: 1.5;" width="10" x="421.5" y="109"/><rect fill="#FEFECE" height="5" style="stroke: #A80036; stroke-width: 1.5;" width="10" x="421.5" y="130.4883"/><text fill="#000000" font-family="sans-serif" font-size="14" lengthAdjust="spacingAndGlyphs" textLength="141" x="436.5" y="127.5352">commons-compress</text><!--entity fun-io-jackson--><rect fill="#FEFECE" filter="url(#f8ljhz57nvt4x)" height="36.4883" style="stroke: #A80036; stroke-width: 1.5;" width="124" x="6" y="104"/><rect fill="#FEFECE" height="5" style="stroke: #A80036; stroke-width: 1.5;" width="10" x="1" y="109"/><rect fill="#FEFECE" height="5" style="stroke: #A80036; stroke-width: 1.5;" width="10" x="1" y="130.4883"/><text fill="#000000" font-family="sans-serif" font-size="14" lengthAdjust="spacingAndGlyphs" textLength="104" x="16" y="127.5352">fun-io-jackson</text><!--entity fun-io-api--><rect fill="#FEFECE" filter="url(#f8ljhz57nvt4x)" height="36.4883" style="stroke: #A80036; stroke-width: 1.5;" width="93" x="169.5" y="8"/><rect fill="#FEFECE" height="5" style="stroke: #A80036; stroke-width: 1.5;" width="10" x="164.5" y="13"/><rect fill="#FEFECE" height="5" style="stroke: #A80036; stroke-width: 1.5;" width="10" x="164.5" y="34.4883"/><text fill="#000000" font-family="sans-serif" font-size="14" lengthAdjust="spacingAndGlyphs" textLength="73" x="179.5" y="31.5352">fun-io-api</text><!--entity fun-io-bios--><rect fill="#FEFECE" filter="url(#f8ljhz57nvt4x)" height="36.4883" style="stroke: #A80036; stroke-width: 1.5;" width="101" x="165.5" y="104"/><rect fill="#FEFECE" height="5" style="stroke: #A80036; stroke-width: 1.5;" width="10" x="160.5" y="109"/><rect fill="#FEFECE" height="5" style="stroke: #A80036; stroke-width: 1.5;" width="10" x="160.5" y="130.4883"/><text fill="#000000" font-family="sans-serif" font-size="14" lengthAdjust="spacingAndGlyphs" textLength="81" x="175.5" y="127.5352">fun-io-bios</text><!--entity client-application--><rect fill="#FEFECE" filter="url(#f8ljhz57nvt4x)" height="36.4883" style="stroke: #A80036; stroke-width: 1.5;" width="141" x="190.5" y="392"/><rect fill="#FEFECE" height="5" style="stroke: #A80036; stroke-width: 1.5;" width="10" x="185.5" y="397"/><rect fill="#FEFECE" height="5" style="stroke: #A80036; stroke-width: 1.5;" width="10" x="185.5" y="418.4883"/><text fill="#000000" font-family="sans-serif" font-size="14" lengthAdjust="spacingAndGlyphs" textLength="121" x="200.5" y="415.5352">client-application</text><!--link archive-io-api to archive-io-commons-compress--><path d="M423.3174,251.1114 C436.5406,266.0458 451.6534,283.1145 462.7948,295.6977 " fill="none" id="archive-io-api-archive-io-commons-compress" style="stroke: #A80036; stroke-width: 1.0;"/><polygon fill="none" points="418.0052,255.6713,409.9878,236.0569,428.487,246.3905,418.0052,255.6713" style="stroke: #A80036; stroke-width: 1.0;"/><!--link archive-io-api to archive-io-delta--><path d="M332.8861,237.6877 C279.8115,254.7855 203.5844,279.3419 152.0529,295.9427 " fill="none" id="archive-io-api-archive-io-delta" style="stroke: #A80036; stroke-width: 1.0;"/><polygon fill="#A80036" points="337.9485,236.0569,328.1555,235.0095,333.1894,237.5902,330.6087,242.6241,337.9485,236.0569" style="stroke: #A80036; stroke-width: 1.0;"/><!--link archive-io-api to archive-io-bios--><path d="M352.6962,247.8132 C330.9929,263.4788 305.0876,282.1774 286.3563,295.6977 " fill="none" id="archive-io-api-archive-io-bios" style="stroke: #A80036; stroke-width: 1.0;"/><polygon fill="none" points="348.67,242.0864,368.9837,236.0569,356.8638,253.4382,348.67,242.0864" style="stroke: #A80036; stroke-width: 1.0;"/><!--link archive-io-bios to archive-io-commons-compress--><!--link commons-compress to archive-io-commons-compress--><path d="M503.6419,145.0271 C498.0074,183.6633 486.7655,260.7506 481.6476,295.8452 " fill="none" id="commons-compress-archive-io-commons-compress" style="stroke: #A80036; stroke-width: 1.0;"/><polygon fill="#A80036" points="504.3658,140.0629,499.1089,148.3914,503.6442,145.0106,507.0251,149.5459,504.3658,140.0629" style="stroke: #A80036; stroke-width: 1.0;"/><!--link fun-io-jackson to archive-io-delta--><path d="M71.3581,145.0271 C76.9926,183.6633 88.2345,260.7506 93.3524,295.8452 " fill="none" id="fun-io-jackson-archive-io-delta" style="stroke: #A80036; stroke-width: 1.0;"/><polygon fill="#A80036" points="70.6342,140.0629,67.9749,149.5459,71.3558,145.0106,75.8911,148.3914,70.6342,140.0629" style="stroke: #A80036; stroke-width: 1.0;"/><!--link fun-io-api to archive-io-api--><path d="M236.478,48.0887 C271.9976,86.4019 344.3677,164.4641 377.169,199.8452 " fill="none" id="fun-io-api-archive-io-api" style="stroke: #A80036; stroke-width: 1.0;"/><polygon fill="#A80036" points="232.7458,44.0629,235.9313,53.3824,236.1452,47.7295,241.798,47.9434,232.7458,44.0629" style="stroke: #A80036; stroke-width: 1.0;"/><!--link fun-io-api to fun-io-bios--><path d="M216,49.0611 C216,65.8106 216,88.1694 216,103.6977 " fill="none" id="fun-io-api-fun-io-bios" style="stroke: #A80036; stroke-width: 1.0;"/><polygon fill="#A80036" points="216,44.0569,212,53.0569,216,49.0569,220,53.0569,216,44.0569" style="stroke: #A80036; stroke-width: 1.0;"/><!--link fun-io-api to fun-io-jackson--><path d="M183.7223,46.9369 C157.515,63.9362 120.9372,87.6624 95.964,103.8612 " fill="none" id="fun-io-api-fun-io-jackson" style="stroke: #A80036; stroke-width: 1.0;"/><polygon fill="#A80036" points="188.1623,44.0569,178.4349,45.5988,183.9675,46.7779,182.7884,52.3105,188.1623,44.0569" style="stroke: #A80036; stroke-width: 1.0;"/><!--link fun-io-bios to archive-io-commons-compress--><path d="M234.9443,144.3199 C261.4711,175.4264 307.5119,228.8281 317,236 C351.2398,261.8814 395.4334,282.4624 429.0105,295.9704 " fill="none" id="fun-io-bios-archive-io-commons-compress" style="stroke: #A80036; stroke-width: 1.0;"/><polygon fill="#A80036" points="231.4943,140.271,234.2869,149.7157,234.7372,144.0767,240.3761,144.527,231.4943,140.271" style="stroke: #A80036; stroke-width: 1.0;"/><!--link fun-io-bios to archive-io-delta--><path d="M201.9025,144.556 C177.8542,183.0333 129.3704,260.6073 107.3467,295.8452 " fill="none" id="fun-io-bios-archive-io-delta" style="stroke: #A80036; stroke-width: 1.0;"/><polygon fill="#A80036" points="204.7107,140.0629,196.5487,145.5749,202.0607,144.3029,203.3327,149.8149,204.7107,140.0629" style="stroke: #A80036; stroke-width: 1.0;"/><!--link fun-io-bios to archive-io-bios--><path d="M221.397,145.0271 C230.4523,183.6633 248.5197,260.7506 256.745,295.8452 " fill="none" id="fun-io-bios-archive-io-bios" style="stroke: #A80036; stroke-width: 1.0;"/><polygon fill="#A80036" points="220.2335,140.0629,218.3928,149.7382,221.3745,144.931,226.1817,147.9126,220.2335,140.0629" style="stroke: #A80036; stroke-width: 1.0;"/><!--link archive-io-delta to client-application--><path d="M131.6236,334.7265 C160.8656,351.74 201.8672,375.5954 229.8239,391.8612 " fill="none" id="archive-io-delta-client-application" style="stroke: #A80036; stroke-width: 1.0;"/><polygon fill="#A80036" points="127.0352,332.0569,132.8026,340.0405,131.3569,334.5715,136.8259,333.1258,127.0352,332.0569" style="stroke: #A80036; stroke-width: 1.0;"/><text fill="#000000" font-family="sans-serif" font-size="13" lengthAdjust="spacingAndGlyphs" textLength="24" x="109.3406" y="353.0615">this</text><!--link archive-io-bios to client-application--><path d="M261,337.0611 C261,353.8106 261,376.1694 261,391.6977 " fill="none" id="archive-io-bios-client-application" style="stroke: #A80036; stroke-width: 1.0; stroke-dasharray: 7.0,7.0;"/><polygon fill="#A80036" points="261,332.0569,257,341.0569,261,337.0569,265,341.0569,261,332.0569" style="stroke: #A80036; stroke-width: 1.0;"/><text fill="#000000" font-family="sans-serif" font-size="13" lengthAdjust="spacingAndGlyphs" textLength="91" x="154.9281" y="353.0615">and either this</text><!--link archive-io-commons-compress to client-application--><path d="M433.3574,334.0995 C394.639,351.1498 339.583,375.3946 302.1903,391.8612 " fill="none" id="archive-io-commons-compress-client-application" style="stroke: #A80036; stroke-width: 1.0; stroke-dasharray: 7.0,7.0;"/><polygon fill="#A80036" points="437.9959,332.0569,428.1471,332.0234,433.42,334.072,431.3713,339.3449,437.9959,332.0569" style="stroke: #A80036; stroke-width: 1.0;"/><text fill="#000000" font-family="sans-serif" font-size="13" lengthAdjust="spacingAndGlyphs" textLength="42" x="375.457" y="353.0615">or that</text><!--
@startuml

folder global.namespace.archive-io {
    [archive-io-api] <|- - [archive-io-commons-compress]
    [archive-io-api] <- - [archive-io-delta]
    [archive-io-api] <|- - [archive-io-bios]
    [archive-io-bios] -[hidden] [archive-io-commons-compress]
}

[commons-compress] <- - - [archive-io-commons-compress]
[fun-io-jackson] <- - - [archive-io-delta]
[fun-io-api] <- - [archive-io-api]
[fun-io-api] <- - [fun-io-bios]
[fun-io-api] <- - [fun-io-jackson]
[fun-io-bios] <- - - [archive-io-commons-compress]
[fun-io-bios] <- - - [archive-io-delta]
[fun-io-bios] <- - - [archive-io-bios]

[archive-io-delta] "this" <- - [client-application]
[archive-io-bios] "and either this" <.. [client-application]
[archive-io-commons-compress] "or that" <.. [client-application]

@enduml

PlantUML version 1.2018.01(Sun Jan 28 22:08:22 GST 2018)
(GPL source distribution)
Java Runtime: OpenJDK Runtime Environment
JVM: OpenJDK 64-Bit Server VM
Java Version: 1.8.0_152-release-1136-b27
Operating System: Mac OS X
OS Version: 10.13.4
Default Encoding: UTF-8
Language: en
Country: AE
--></g></svg>